<svg xmlns="http://www.w3.org/2000/svg" width="1360" height="470" viewBox="0 0 1360 470" role="img" aria-label="Blessed Beginnings Preschool">
  <g fill="none" stroke-linecap="butt">
    <path d="M40 366 A210 210 0 0 1 460 366" stroke="#e30613" stroke-width="30"/>
    <path d="M70 366 A180 180 0 0 1 430 366" stroke="#ec6608" stroke-width="30"/>
    <path d="M100 366 A150 150 0 0 1 400 366" stroke="#ffd500" stroke-width="30"/>
    <path d="M130 366 A120 120 0 0 1 370 366" stroke="#3aa935" stroke-width="30"/>
    <path d="M160 366 A90 90 0 0 1 340 366" stroke="#0069b4" stroke-width="30"/>
    <path d="M190 366 A60 60 0 0 1 310 366" stroke="#8f2d8f" stroke-width="30"/>
  </g>
  <!-- white brushstroke heart over the arcs -->
  <path d="M250 356 c-52 -60 -134 -14 -134 50 c0 50 68 96 134 138 c66 -42 134 -88 134 -138 c0 -64 -82 -110 -134 -50 z" fill="#ffffff"/>
  <!-- red heart -->
  <path d="M250 376 c-34 -40 -90 -10 -90 34 c0 34 46 64 90 92 c44 -28 90 -58 90 -92 c0 -44 -56 -74 -90 -34 z" fill="#e30613"/>
  <!-- wordmark -->
  <g fill="#1a1a1a" font-family="Georgia, 'Times New Roman', serif">
    <text x="520" y="190" font-size="130" font-weight="700" letter-spacing="2">BLESSED</text>
    <text x="520" y="312" font-size="130" font-weight="700" letter-spacing="1">BEGINNINGS</text>
    <text x="523" y="402" font-size="58" font-weight="500" letter-spacing="23">PRESCHOOL</text>
  </g>
</svg>
