<svg xmlns="http://www.w3.org/2000/svg" width="1380" height="470" viewBox="0 0 1380 470" role="img" aria-label="Blessed Beginnings Preschool">
  <g fill="none" stroke-linecap="butt">
    <path d="M44 360 A196 196 0 0 1 436 360" stroke="#e4001b" stroke-width="44"/>
    <path d="M90 360 A150 150 0 0 1 390 360" stroke="#f39200" stroke-width="44"/>
    <path d="M136 360 A104 104 0 0 1 344 360" stroke="#ffd500" stroke-width="44"/>
    <path d="M182 360 A58 58 0 0 1 298 360" stroke="#3aaa35" stroke-width="44"/>
  </g>
  <!-- white heart knockout over the arcs -->
  <path d="M240 356 c-46 -52 -120 -12 -120 44 c0 44 60 84 120 120 c60 -36 120 -76 120 -120 c0 -56 -74 -96 -120 -44 z" fill="#ffffff"/>
  <!-- red heart -->
  <path d="M240 372 c-30 -34 -80 -8 -80 30 c0 30 40 56 80 80 c40 -24 80 -50 80 -80 c0 -38 -50 -64 -80 -30 z" fill="#e4001b"/>
  <!-- wordmark -->
  <g fill="#1a1a1a" font-family="Georgia, 'Times New Roman', serif">
    <text x="500" y="188" font-size="132" font-weight="700" letter-spacing="2">BLESSED</text>
    <text x="500" y="312" font-size="132" font-weight="700" letter-spacing="1">BEGINNINGS</text>
    <text x="503" y="404" font-size="60" font-weight="500" letter-spacing="24">PRESCHOOL</text>
  </g>
</svg>
